# xmcd
#
# Track frame offsets:
#	150
#	11750
#	27788
#	41800
#	55338
#	65113
#	81250
#	97488
#	108838
#	119388
#
# Disc length: 1731 seconds
#
# Revision: 1
# Processed by: cddbd v1.4PL0 Copyright (c) Steve Scherf et al.
# Submitted via: audiograbber 1.81.03
#
DISCID=8c06c10a
DTITLE=Willie Nelson - The Legendary Willie Nelson
DYEAR=1900
DGENRE=Country
TTITLE0=On The Road Again
TTITLE1=Whiskey River
TTITLE2=My Heroes Have Always Been Cowboys
TTITLE3=I'm Going To Sit Right Down And Write Myself A Letter
TTITLE4=I'm A Memory
TTITLE5=Blue Skies
TTITLE6=Partners After All
TTITLE7=Heartaches Of A Fool
TTITLE8=Blue Eyes Crying In The Rain
TTITLE9=Island In The Sea
EXTD=
EXTT0=
EXTT1=
EXTT2=
EXTT3=
EXTT4=
EXTT5=
EXTT6=
EXTT7=
EXTT8=
EXTT9=
PLAYORDER=
